{"title":"Irene Huss, Tatuerad Torso 2007 DVDrip Swedish/English Klam","uid":6886534,"size":1216789188,"categoryP":"video","categoryS":"movies","magnet":"?xt=urn:btih:840b5767539552a0304012fdaae3bf8da2ec7fda&amp;dn=Irene+Huss%2C+Tatuerad+Torso+2007+DVDrip+Swedish%2FEnglish+Klam&amp;tr=udp%3A%2F%2Ftracker.openbittorrent.com%3A80&amp;tr=udp%3A%2F%2Fopen.demonii.com%3A1337&amp;tr=udp%3A%2F%2Ftracker.coppersurfer.tk%3A6969&amp;tr=udp%3A%2F%2Fexodus.desync.com%3A6969","seeders":1,"leechers":0,"uploader":"Klambake","files":-1,"time":1323854334,"description":"With: Angela Kovacs, Lars Brandeby en Anki LidÃƒÂ©n\n\nDe ontdekking van een in stukken gehakt lijk leidt ertoe dat er een achtervolging naar een sluwe seriemoordenaar ontstaat. Het spoor leidt naar Kopenhagen, waar Irene Huss ontdekt dat dezelfde moordenaar een vergelijkbare vreselijke moord heeft begaan.\n\nThe discovery of a dismembered corpse initiates a frustrating chase for a wily serial killer. The trail leads to Copenhagen, where Irene Huss realizes the same murderer committed a similar horrific crime. \n\nEnglish srt.subs included.\n\n------------------------ Dutch Friends ------------------------\n---------------------------------------------------------------\n- Bezoek ook eens mijn vrienden op: &lt;a href=&quot; http://www.Film-Test.nl&quot; rel=&quot;nofollow&quot; target=&quot;_NEW&quot;&gt; http://www.Film-Test.nl&lt;/a&gt; --\n----- voor mijn Nederlandse Sync. ondertitels ---- en meer ----\n------- http://www.Film-Test.nl ---- voor Films en meer -------\n---------------------------------------------------------------\n\nGeneral:\n\nComplete name                    : Irene Huss\\Tatuerad Torso.avi\nFormat                           : AVI\nFormat/Info                      : Audio Video Interleave\nFile size                        : 1.13 GiB\nDuration                         : 1h 28mn\nOverall bit rate                 : 1 840 Kbps\n\nVideo:\n\nFormat                           : MPEG-4 Visual\nFormat profile                   : Simple@L3\nFormat settings, BVOP            : No\nFormat settings, QPel            : No\nFormat settings, GMC             : No warppoints\nFormat settings, Matrix          : Default (H.263)\nCodec ID                         : XVID\nCodec ID/Hint                    : XviD\nDuration                         : 1h 28mn\nBit rate                         : 1 382 Kbps\nWidth                            : 652 pixels\nHeight                           : 352 pixels\nDisplay aspect ratio             : 1.852\nFrame rate                       : 25.000 fps\nColor space                      : YUV\nChroma subsampling               : 4:2:0\nBit depth                        : 8 bits\nScan type                        : Progressive\nCompression mode                 : Lossy\nBits/(Pixel*Frame)               : 0.241\nStream size                      : 871 MiB (75%)\nWriting library                  : XviD 1.1.2 (UTC 2006-11-01)\n\nAudio:\n\nFormat                           : AC-3\nFormat/Info                      : Audio Coding 3\nMode extension                   : CM (complete main)\nCodec ID                         : 2000\nDuration                         : 1h 28mn\nBit rate mode                    : Constant\nBit rate                         : 448 Kbps\nChannel(s)                       : 6 channels\nChannel positions                : Front: L C R, Side: L R, LFE\nSampling rate                    : 48.0 KHz\nBit depth                        : 16 bits\nCompression mode                 : Lossy\nStream size                      : 282 MiB (24%)\nAlignment                        : Aligned on interleaves\nInterleave, duration             : 32 ms (0.80 video frame)\nInterleave, preload duration     : 480 ms\n\n","torrent":{"xt":"urn:btih:840b5767539552a0304012fdaae3bf8da2ec7fda","amp;dn":"Irene+Huss%2C+Tatuerad+Torso+2007+DVDrip+Swedish%2FEnglish+Klam","amp;tr":["udp%3A%2F%2Ftracker.openbittorrent.com%3A80","udp%3A%2F%2Fopen.demonii.com%3A1337","udp%3A%2F%2Ftracker.coppersurfer.tk%3A6969","udp%3A%2F%2Fexodus.desync.com%3A6969"],"infoHash":"840b5767539552a0304012fdaae3bf8da2ec7fda","infoHashBuffer":{"type":"Buffer","data":[132,11,87,103,83,149,82,160,48,64,18,253,170,227,191,141,162,236,127,218]},"announce":[],"urlList":[]}}